<mxfile host="65bd71144e">
    <diagram id="iG6QyBe2TL6udn1lgurI" name="Page-1">
        <mxGraphModel dx="1291" dy="916" grid="1" gridSize="10" guides="1" tooltips="1" connect="1" arrows="1" fold="1" page="1" pageScale="1" pageWidth="1600" pageHeight="900" math="0" shadow="0">
            <root>
                <mxCell id="0"/>
                <mxCell id="1" parent="0"/>
                <mxCell id="10" value="" style="rounded=1;fontSize=16;fontColor=#000000;fillColor=#fa6800;strokeColor=#C73500;" parent="1" vertex="1">
                    <mxGeometry x="584" y="260" width="400" height="60" as="geometry"/>
                </mxCell>
                <mxCell id="2" value="MAVLink Message Frame 1" style="rounded=1;fillColor=#60a917;fontColor=#ffffff;strokeColor=#2D7600;fontSize=16;" parent="1" vertex="1">
                    <mxGeometry x="410" y="110" width="200" height="40" as="geometry"/>
                </mxCell>
                <mxCell id="3" value="MAVLink Message&#10;Â Frame 2" style="rounded=1;fillColor=#60a917;fontColor=#ffffff;strokeColor=#2D7600;fontSize=16;" parent="1" vertex="1">
                    <mxGeometry x="650" y="110" width="136" height="40" as="geometry"/>
                </mxCell>
                <mxCell id="4" value="MAVLink Message Frame 3" style="rounded=1;fillColor=#60a917;fontColor=#ffffff;strokeColor=#2D7600;fontSize=16;" parent="1" vertex="1">
                    <mxGeometry x="830" y="110" width="340" height="40" as="geometry"/>
                </mxCell>
                <mxCell id="5" value="MAVLink Message Frame 1" style="rounded=1;fillColor=#60a917;fontColor=#ffffff;strokeColor=#2D7600;fontSize=16;" parent="1" vertex="1">
                    <mxGeometry x="594" y="270" width="200" height="40" as="geometry"/>
                </mxCell>
                <mxCell id="6" value="" style="shape=flexArrow;endArrow=classic;fillColor=#fa6800;strokeColor=#C73500;" parent="1" edge="1">
                    <mxGeometry width="50" height="50" relative="1" as="geometry">
                        <mxPoint x="783.4100000000001" y="180" as="sourcePoint"/>
                        <mxPoint x="783.4100000000001" y="240" as="targetPoint"/>
                    </mxGeometry>
                </mxCell>
                <mxCell id="11" value="" style="rounded=1;fontSize=16;fontColor=#000000;fillColor=#fa6800;strokeColor=#C73500;" parent="1" vertex="1">
                    <mxGeometry x="584" y="340" width="400" height="60" as="geometry"/>
                </mxCell>
                <mxCell id="12" value="MAVLink Message&#10;Frame 2" style="rounded=1;fillColor=#60a917;fontColor=#ffffff;strokeColor=#2D7600;fontSize=16;" parent="1" vertex="1">
                    <mxGeometry x="594" y="350" width="136" height="40" as="geometry"/>
                </mxCell>
                <mxCell id="14" value="" style="rounded=1;fontSize=16;fontColor=#000000;fillColor=#fa6800;strokeColor=#C73500;" parent="1" vertex="1">
                    <mxGeometry x="584" y="420" width="400" height="80" as="geometry"/>
                </mxCell>
                <mxCell id="15" value="MAVLink Message Frame 3" style="rounded=1;fillColor=#60a917;fontColor=#ffffff;strokeColor=#2D7600;fontSize=16;" parent="1" vertex="1">
                    <mxGeometry x="594" y="450" width="340" height="40" as="geometry"/>
                </mxCell>
                <mxCell id="32" value="" style="shape=flexArrow;endArrow=classic;fillColor=#1ba1e2;strokeColor=#006EAF;" parent="1" edge="1">
                    <mxGeometry width="50" height="50" relative="1" as="geometry">
                        <mxPoint x="783.4100000000001" y="520" as="sourcePoint"/>
                        <mxPoint x="783.4100000000001" y="580" as="targetPoint"/>
                    </mxGeometry>
                </mxCell>
                <mxCell id="35" value="Framing" style="rounded=1;fontSize=16;fontColor=#FFFFFF;fillColor=#fa6800;strokeColor=#C73500;" parent="1" vertex="1">
                    <mxGeometry x="820" y="190" width="120" height="40" as="geometry"/>
                </mxCell>
                <mxCell id="37" value="Encryption" style="rounded=1;fontSize=16;fontColor=#ffffff;fillColor=#1ba1e2;strokeColor=#006EAF;" parent="1" vertex="1">
                    <mxGeometry x="820" y="530" width="120" height="40" as="geometry"/>
                </mxCell>
                <mxCell id="39" value="Plaintext Frame 1" style="text;strokeColor=none;fillColor=none;align=center;verticalAlign=middle;rounded=0;fontSize=16;fontColor=#FFFFFF;" parent="1" vertex="1">
                    <mxGeometry x="770" y="275" width="236" height="30" as="geometry"/>
                </mxCell>
                <mxCell id="40" value="Plaintext Frame 2" style="text;strokeColor=none;fillColor=none;align=center;verticalAlign=middle;rounded=0;fontSize=16;fontColor=#FFFFFF;" parent="1" vertex="1">
                    <mxGeometry x="770" y="355" width="236" height="30" as="geometry"/>
                </mxCell>
                <mxCell id="41" value="Plaintext Frame 3" style="text;strokeColor=none;fillColor=none;align=center;verticalAlign=middle;rounded=0;fontSize=16;fontColor=#FFFFFF;" parent="1" vertex="1">
                    <mxGeometry x="770" y="420" width="236" height="30" as="geometry"/>
                </mxCell>
                <mxCell id="54" value="Ciphertext Frame 1" style="rounded=1;fontSize=16;fontColor=#ffffff;fillColor=#1ba1e2;strokeColor=#006EAF;" parent="1" vertex="1">
                    <mxGeometry x="584" y="600" width="400" height="50" as="geometry"/>
                </mxCell>
                <mxCell id="55" value="Ciphertext Frame 2" style="rounded=1;fontSize=16;fontColor=#ffffff;fillColor=#1ba1e2;strokeColor=#006EAF;" parent="1" vertex="1">
                    <mxGeometry x="584" y="670" width="400" height="50" as="geometry"/>
                </mxCell>
                <mxCell id="56" value="Ciphertext Frame 3" style="rounded=1;fontSize=16;fontColor=#ffffff;fillColor=#1ba1e2;strokeColor=#006EAF;" parent="1" vertex="1">
                    <mxGeometry x="584" y="740" width="400" height="50" as="geometry"/>
                </mxCell>
            </root>
        </mxGraphModel>
    </diagram>
</mxfile>